<?xml version="1.0" encoding="UTF-8" standalone="no"?>
<!DOCTYPE svg PUBLIC "-//W3C//DTD SVG 1.1//EN" "http://www.w3.org/Graphics/SVG/1.1/DTD/svg11.dtd">
<svg width="100%" height="100%" viewBox="0 0 512 512" version="1.1" xmlns="http://www.w3.org/2000/svg" xmlns:xlink="http://www.w3.org/1999/xlink" xml:space="preserve" xmlns:serif="http://www.serif.com/" style="fill-rule:evenodd;clip-rule:evenodd;stroke-linecap:round;stroke-linejoin:round;stroke-miterlimit:1.5;">
    <g transform="matrix(1.89582,0,0,1.89582,-245.936,-182.037)">
        <path d="M138.633,241.966C138.326,238.369 138.169,234.73 138.169,231.054C138.169,182.444 165.626,140.197 205.865,118.988C241.497,108.379 264.76,121.229 264.76,121.229C246.409,133.193 233.555,153.244 233.555,153.244C216.114,178.388 209.727,195.774 209.727,195.774C192.392,208.909 187.554,212.574 163.097,225.457C138.641,238.34 138.633,241.966 138.633,241.966Z" style="fill:rgb(227,65,77);stroke:rgb(7,15,28);stroke-width:2.64px;"/>
    </g>
    <g transform="matrix(1.89582,0,0,1.89582,-245.936,-182.037)">
        <path d="M138.633,241.966C157.779,317.054 209.727,342.273 209.727,342.273C209.727,342.273 210.297,344.286 214.4,347.217C172.73,329.108 142.676,289.226 138.633,241.966Z" style="fill:rgb(81,198,186);stroke:rgb(7,15,28);stroke-width:2.64px;"/>
    </g>
    <g transform="matrix(1.89582,0,0,1.89582,-245.936,-182.037)">
        <path d="M341.326,185.989C311.161,135.554 264.76,121.229 264.76,121.229C264.76,121.229 277.272,109.271 299.932,109.421C348.446,123.445 385.014,165.735 390.607,217.263C387.965,213.087 382.639,209.404 369.066,201.998C342.334,187.414 341.326,185.989 341.326,185.989Z" style="fill:rgb(118,209,151);stroke:rgb(7,15,28);stroke-width:2.64px;"/>
    </g>
    <g transform="matrix(1.89582,0,0,1.89582,-245.936,-182.037)">
        <path d="M233.555,153.244C233.555,153.244 246.409,133.193 264.76,121.229C264.76,121.229 311.161,135.554 341.326,185.989C341.326,185.989 353.17,239.481 284.858,293.803C284.858,293.803 217.688,254.714 209.727,195.774C209.727,195.774 216.114,178.388 233.555,153.244Z" style="fill:rgb(249,201,87);stroke:rgb(7,15,28);stroke-width:2.64px;"/>
    </g>
    <g transform="matrix(1.89582,0,0,1.89582,-245.936,-182.037)">
        <path d="M284.858,293.803C284.858,293.803 329.835,320.521 336.186,323.873C342.538,327.225 342.111,331.242 342.111,331.242C320.713,347.793 293.878,357.645 264.76,357.645C246.867,357.645 229.837,353.925 214.4,347.217C210.297,344.286 209.727,342.273 209.727,342.273C227.382,330.503 223.473,334.793 246.18,320.874C268.888,306.954 284.858,293.803 284.858,293.803Z" style="fill:rgb(23,45,74);stroke:rgb(7,15,28);stroke-width:2.64px;"/>
    </g>
    <g transform="matrix(1.89582,0,0,1.89582,-245.936,-182.037)">
        <path d="M341.326,185.989C341.326,185.989 342.334,187.414 369.066,201.998C382.639,209.404 387.965,213.087 390.607,217.263C391.099,221.793 391.351,226.394 391.351,231.054C391.351,271.803 372.056,308.081 342.111,331.242C342.111,331.242 342.538,327.225 336.186,323.873C329.835,320.521 284.858,293.803 284.858,293.803C353.17,239.481 341.326,185.989 341.326,185.989Z" style="fill:rgb(81,198,186);stroke:rgb(7,15,28);stroke-width:2.64px;"/>
    </g>
    <g transform="matrix(1.89582,0,0,1.89582,-245.936,-182.037)">
        <path d="M284.858,293.803C284.858,293.803 268.888,306.954 246.18,320.874C223.473,334.793 227.382,330.503 209.727,342.273C209.727,342.273 157.779,317.054 138.633,241.966C138.633,241.966 138.641,238.34 163.097,225.457C187.554,212.574 192.392,208.909 209.727,195.774C217.688,254.714 284.858,293.803 284.858,293.803Z" style="fill:rgb(244,121,54);stroke:rgb(7,15,28);stroke-width:2.64px;"/>
    </g>
    <g transform="matrix(1.89582,0,0,1.89582,-245.936,-182.037)">
        <path d="M264.76,121.229C264.76,121.229 241.497,108.379 205.865,118.988C223.461,109.714 243.502,104.463 264.76,104.463C276.962,104.463 288.764,106.193 299.932,109.421C277.272,109.271 264.76,121.229 264.76,121.229Z" style="fill:rgb(244,121,54);stroke:rgb(7,15,28);stroke-width:2.64px;"/>
    </g>
    <g transform="matrix(1.89582,0,0,1.89582,-245.936,-182.037)">
        <path d="M138.633,241.966C138.326,238.369 138.169,234.73 138.169,231.054C138.169,182.444 165.626,140.197 205.865,118.988C223.461,109.714 243.502,104.463 264.76,104.463C276.962,104.463 288.764,106.193 299.932,109.421C348.446,123.445 385.014,165.735 390.607,217.263C391.099,221.793 391.351,226.394 391.351,231.054C391.351,271.803 372.056,308.081 342.111,331.242C320.713,347.793 293.878,357.645 264.76,357.645C246.867,357.645 229.837,353.925 214.4,347.217C172.73,329.108 142.676,289.226 138.633,241.966Z" style="fill:none;stroke:rgb(7,15,28);stroke-width:10.55px;"/>
    </g>
</svg>
